<svg width="379" height="39" viewBox="0 0 379 39" fill="none" xmlns="http://www.w3.org/2000/svg">
<path d="M63.6823 8.39844C63.403 8.26237 63.0342 8.1084 62.5759 7.93652C62.1176 7.76465 61.5984 7.60352 61.0183 7.45312C60.4382 7.29557 59.808 7.16667 59.1277 7.06641C58.4473 6.95898 57.7491 6.90527 57.0329 6.90527C56.46 6.90527 55.9695 6.92318 55.5612 6.95898C55.1602 6.99479 54.82 7.04134 54.5407 7.09863C54.2686 7.15592 54.0502 7.22396 53.8855 7.30273C53.7279 7.37435 53.6062 7.44954 53.5202 7.52832C53.4343 7.6071 53.377 7.68587 53.3484 7.76465C53.3269 7.84342 53.3161 7.91504 53.3161 7.97949C53.3161 8.19434 53.4236 8.38411 53.6384 8.54883C53.8532 8.70638 54.1469 8.84961 54.5193 8.97852C54.8917 9.10026 55.3249 9.21842 55.8191 9.33301C56.3132 9.44043 56.836 9.55501 57.3874 9.67676C57.946 9.79134 58.5189 9.92025 59.1062 10.0635C59.7006 10.1995 60.2735 10.3607 60.8249 10.5469C61.3835 10.7331 61.9099 10.9515 62.404 11.2021C62.8982 11.4456 63.3314 11.7321 63.7038 12.0615C64.0762 12.391 64.3698 12.7705 64.5847 13.2002C64.7995 13.6299 64.907 14.1204 64.907 14.6719C64.907 15.3809 64.7816 15.9896 64.531 16.498C64.2803 17.0065 63.9437 17.4362 63.5212 17.7871C63.1058 18.138 62.6224 18.4209 62.071 18.6357C61.5196 18.8434 60.9395 19.0046 60.3308 19.1191C59.7292 19.2337 59.1169 19.3089 58.4939 19.3447C57.878 19.3805 57.2907 19.3984 56.7321 19.3984C55.2712 19.3984 53.9177 19.2767 52.6716 19.0332C51.4327 18.7969 50.337 18.4997 49.3845 18.1416V14.6182C50.3656 15.1624 51.4828 15.5885 52.7361 15.8965C53.9965 16.2044 55.3428 16.3584 56.7751 16.3584C57.6202 16.3584 58.3077 16.3154 58.8376 16.2295C59.3747 16.1364 59.7937 16.0218 60.0945 15.8857C60.3952 15.7425 60.5993 15.5885 60.7068 15.4238C60.8142 15.2591 60.8679 15.1016 60.8679 14.9512C60.8679 14.7148 60.7605 14.5107 60.5456 14.3389C60.3308 14.1598 60.0372 14.0059 59.6648 13.877C59.2924 13.7409 58.8591 13.6191 58.365 13.5117C57.8708 13.3971 57.3445 13.2861 56.7859 13.1787C56.2344 13.0641 55.6651 12.9424 55.0779 12.8135C54.4906 12.6846 53.9177 12.5342 53.3591 12.3623C52.8077 12.1833 52.2849 11.9792 51.7907 11.75C51.2966 11.5137 50.8633 11.238 50.4909 10.9229C50.1185 10.6006 49.8249 10.2318 49.6101 9.81641C49.3952 9.39388 49.2878 8.9069 49.2878 8.35547C49.2878 7.70378 49.4024 7.1416 49.6316 6.66895C49.8607 6.19629 50.1687 5.79525 50.5554 5.46582C50.9493 5.12923 51.4004 4.8571 51.9089 4.64941C52.4245 4.44173 52.9652 4.2806 53.531 4.16602C54.0967 4.05143 54.6696 3.97266 55.2497 3.92969C55.8298 3.88672 56.3812 3.86523 56.904 3.86523C57.4769 3.86523 58.0642 3.89388 58.6657 3.95117C59.2745 4.00846 59.8724 4.09082 60.4597 4.19824C61.0469 4.2985 61.6127 4.41667 62.157 4.55273C62.7084 4.6888 63.2168 4.83203 63.6823 4.98242V8.39844ZM74.015 9.87012L82.1791 4.24121H87.518L77.5814 11.3203L88.184 19.001H82.3725L74.015 12.8672V19.001H70.0082V4.24121H74.015V9.87012ZM101.084 12.9746V19.001H97.1095V12.9746L89.9552 4.24121H94.4239L99.1075 10.1816L103.77 4.24121H108.238L101.084 12.9746ZM112.308 19.001V4.24121H116.294V15.7676H127.068V19.001H112.308ZM131.589 19.001V4.24121H135.575V19.001H131.589ZM151.031 3.86523C152.478 3.86523 153.821 3.99056 155.06 4.24121C156.306 4.4847 157.448 4.7998 158.486 5.18652V8.7959C158.078 8.56673 157.616 8.34473 157.101 8.12988C156.592 7.91504 156.037 7.72526 155.436 7.56055C154.834 7.39583 154.19 7.26335 153.502 7.16309C152.815 7.06283 152.091 7.0127 151.332 7.0127C150.387 7.0127 149.563 7.08073 148.861 7.2168C148.16 7.35286 147.558 7.53548 147.057 7.76465C146.555 7.99382 146.144 8.26237 145.821 8.57031C145.499 8.87109 145.245 9.19336 145.059 9.53711C144.873 9.88086 144.744 10.2318 144.672 10.5898C144.6 10.9479 144.565 11.2952 144.565 11.6318C144.565 11.9255 144.593 12.2441 144.651 12.5879C144.715 12.9316 144.83 13.2754 144.994 13.6191C145.166 13.9629 145.402 14.2923 145.703 14.6074C146.004 14.9225 146.394 15.2018 146.874 15.4453C147.361 15.6888 147.945 15.8857 148.625 16.0361C149.305 16.1794 150.115 16.251 151.053 16.251C151.526 16.251 151.937 16.2367 152.288 16.208C152.639 16.1794 152.958 16.14 153.244 16.0898C153.538 16.0397 153.81 15.9788 154.061 15.9072C154.318 15.8356 154.583 15.7604 154.856 15.6816V13.8984H150.387V10.665H158.841V18.2061C158.311 18.3851 157.717 18.5498 157.058 18.7002C156.406 18.8434 155.729 18.9652 155.027 19.0654C154.333 19.1729 153.635 19.2552 152.933 19.3125C152.231 19.3698 151.568 19.3984 150.945 19.3984C149.979 19.3984 149.051 19.334 148.163 19.2051C147.275 19.0762 146.444 18.8792 145.671 18.6143C144.905 18.3421 144.203 17.9984 143.566 17.583C142.935 17.1676 142.395 16.6735 141.943 16.1006C141.499 15.5277 141.152 14.8724 140.901 14.1348C140.658 13.39 140.536 12.5557 140.536 11.6318C140.536 10.7152 140.665 9.88444 140.923 9.13965C141.181 8.39486 141.539 7.736 141.997 7.16309C142.463 6.59017 143.018 6.09603 143.662 5.68066C144.314 5.2653 145.026 4.92513 145.8 4.66016C146.581 4.38802 147.411 4.1875 148.292 4.05859C149.18 3.92969 150.093 3.86523 151.031 3.86523ZM178.584 19.001V12.8457H168.443V19.001H164.458V4.24121H168.443V9.6123H178.584V4.24121H182.569V19.001H178.584ZM196.78 7.45312V19.001H192.794V7.45312H186.532V4.24121H203.053V7.45312H196.78ZM216.607 19.001V4.24121H220.593V19.001H216.607ZM240.486 19.001L230.528 8.86035V19.001H226.542V4.24121H230.872L240.84 14.4248V4.24121H244.804V19.001H240.486ZM254.729 7.38867V9.95605H264.321V13.1035H254.729V19.001H250.743V4.24121H264.848V7.38867H254.729ZM288.673 11.6318C288.673 12.8994 288.44 14.0202 287.974 14.9941C287.509 15.9609 286.843 16.7702 285.976 17.4219C285.11 18.0736 284.057 18.5677 282.818 18.9043C281.586 19.2337 280.201 19.3984 278.661 19.3984C277.121 19.3984 275.728 19.2337 274.482 18.9043C273.243 18.5677 272.187 18.0736 271.313 17.4219C270.44 16.7702 269.766 15.9609 269.294 14.9941C268.821 14.0202 268.585 12.8994 268.585 11.6318C268.585 10.3643 268.821 9.24707 269.294 8.28027C269.766 7.30632 270.44 6.49349 271.313 5.8418C272.187 5.1901 273.243 4.69954 274.482 4.37012C275.728 4.03353 277.121 3.86523 278.661 3.86523C280.201 3.86523 281.586 4.03353 282.818 4.37012C284.057 4.69954 285.11 5.1901 285.976 5.8418C286.843 6.49349 287.509 7.30632 287.974 8.28027C288.44 9.24707 288.673 10.3643 288.673 11.6318ZM284.644 11.6318C284.644 11.0804 284.555 10.5326 284.376 9.98828C284.204 9.43685 283.892 8.94271 283.441 8.50586C282.997 8.06901 282.389 7.71452 281.615 7.44238C280.842 7.17025 279.857 7.03418 278.661 7.03418C277.859 7.03418 277.154 7.09863 276.545 7.22754C275.936 7.34928 275.41 7.52116 274.966 7.74316C274.522 7.96517 274.149 8.22656 273.849 8.52734C273.548 8.82096 273.308 9.13965 273.129 9.4834C272.95 9.81999 272.821 10.1745 272.742 10.5469C272.67 10.9121 272.635 11.2738 272.635 11.6318C272.635 11.9971 272.67 12.3659 272.742 12.7383C272.821 13.1107 272.95 13.4688 273.129 13.8125C273.308 14.1491 273.548 14.4642 273.849 14.7578C274.149 15.0514 274.522 15.3092 274.966 15.5312C275.41 15.7461 275.936 15.918 276.545 16.0469C277.154 16.1686 277.859 16.2295 278.661 16.2295C279.857 16.2295 280.842 16.0934 281.615 15.8213C282.389 15.5492 282.997 15.1947 283.441 14.7578C283.892 14.321 284.204 13.8304 284.376 13.2861C284.555 12.7347 284.644 12.1833 284.644 11.6318ZM301.68 7.45312V19.001H297.695V7.45312H291.432V4.24121H307.954V7.45312H301.68ZM311.916 19.001V4.24121H326.859V7.38867H316.009V9.82715H326.3V12.9746H316.009V15.8535H327.009V19.001H311.916ZM348.449 17.9912C347.934 18.2061 347.414 18.3994 346.892 18.5713C346.369 18.7432 345.828 18.89 345.269 19.0117C344.711 19.1406 344.12 19.2373 343.497 19.3018C342.881 19.3662 342.219 19.3984 341.51 19.3984C340.006 19.3984 338.62 19.2373 337.352 18.915C336.092 18.5928 335.003 18.1094 334.087 17.4648C333.177 16.8132 332.468 16.0039 331.96 15.0371C331.451 14.0632 331.197 12.9281 331.197 11.6318C331.197 10.3356 331.451 9.2041 331.96 8.2373C332.468 7.26335 333.177 6.4541 334.087 5.80957C335.003 5.15788 336.092 4.6709 337.352 4.34863C338.62 4.02637 340.006 3.86523 341.51 3.86523C342.219 3.86523 342.881 3.89746 343.497 3.96191C344.12 4.02637 344.711 4.12305 345.269 4.25195C345.828 4.3737 346.369 4.52051 346.892 4.69238C347.414 4.86426 347.934 5.05762 348.449 5.27246V8.86035C348.041 8.63835 347.611 8.41992 347.16 8.20508C346.709 7.98307 346.211 7.78613 345.667 7.61426C345.123 7.43522 344.525 7.29199 343.873 7.18457C343.221 7.06999 342.487 7.0127 341.671 7.0127C340.418 7.0127 339.376 7.1416 338.545 7.39941C337.721 7.65723 337.062 8.00098 336.568 8.43066C336.074 8.86035 335.727 9.35449 335.526 9.91309C335.326 10.4645 335.225 11.0374 335.225 11.6318C335.225 12.0257 335.268 12.416 335.354 12.8027C335.44 13.1823 335.584 13.5439 335.784 13.8877C335.985 14.2243 336.246 14.5358 336.568 14.8223C336.891 15.1087 337.292 15.3558 337.771 15.5635C338.251 15.7712 338.81 15.9359 339.447 16.0576C340.092 16.1722 340.833 16.2295 341.671 16.2295C342.487 16.2295 343.221 16.1794 343.873 16.0791C344.525 15.9717 345.123 15.832 345.667 15.6602C346.211 15.4883 346.709 15.2949 347.16 15.0801C347.611 14.8581 348.041 14.6325 348.449 14.4033V17.9912ZM367.612 19.001V12.8457H357.471V19.001H353.486V4.24121H357.471V9.6123H367.612V4.24121H371.597V19.001H367.612Z" fill="url(#paint0_linear_366_186)"/>
<path d="M99.7 37.631H99.43L97.34 32.571C97.22 32.291 97.1233 32.0443 97.05 31.831L96.95 32.591L96.13 38.001H95.64L96.82 30.791H97.1L99.33 36.091C99.4433 36.3376 99.5333 36.571 99.6 36.791C99.62 36.7176 99.7233 36.4876 99.91 36.101L102.4 30.791H102.67L103.76 38.001H103.26L102.48 32.571C102.427 32.231 102.4 31.9743 102.4 31.801C102.393 31.8076 102.377 31.841 102.35 31.901C102.33 31.9543 102.29 32.0476 102.23 32.181C102.177 32.3076 102.12 32.441 102.06 32.581L99.7 37.631ZM107.624 35.751L106.694 38.001H106.224L108.944 31.471H109.214L111.954 38.001H111.444L110.504 35.751H107.624ZM109.054 32.211C108.954 32.511 108.864 32.761 108.784 32.961L107.784 35.361H110.344L109.354 32.971C109.201 32.5976 109.101 32.3443 109.054 32.211ZM118.911 31.511L116.141 34.641C117.234 35.9676 117.981 36.8076 118.381 37.161C118.788 37.5143 119.191 37.7143 119.591 37.761L119.581 38.071C119.208 38.0643 118.904 38.011 118.671 37.911C118.438 37.8043 118.231 37.6643 118.051 37.491C117.871 37.3176 117.484 36.8943 116.891 36.221C116.304 35.541 115.864 35.021 115.571 34.661L118.361 31.511H118.911ZM115.431 31.511V38.001H114.971V31.511H115.431ZM122.335 38.001V31.511H122.795V38.001H122.335ZM126.896 38.001V31.471H127.116L131.376 36.371C131.53 36.5443 131.67 36.7176 131.796 36.891C131.93 37.0576 132 37.1443 132.006 37.151C131.993 36.991 131.986 36.6776 131.986 36.211V31.511H132.446V38.041H132.226L127.886 33.061L127.336 32.391C127.35 32.5243 127.356 32.8376 127.356 33.331V38.001H126.896ZM139.256 31.821C138.516 31.821 137.892 32.1043 137.386 32.671C136.886 33.231 136.636 33.921 136.636 34.741C136.636 35.561 136.919 36.2576 137.486 36.831C138.052 37.3976 138.719 37.681 139.486 37.681C140.259 37.681 140.859 37.591 141.286 37.411V34.741H141.746V37.621C141.226 37.941 140.489 38.101 139.536 38.101C138.582 38.101 137.779 37.7776 137.126 37.131C136.472 36.4843 136.146 35.691 136.146 34.751C136.146 33.8043 136.439 33.011 137.026 32.371C137.619 31.731 138.382 31.411 139.316 31.411C140.069 31.411 140.806 31.5276 141.526 31.761L141.406 32.141C140.712 31.9276 139.996 31.821 139.256 31.821ZM152.092 31.921H149.892V31.511H154.742V31.921H152.542V38.001H152.092V31.921ZM162.768 38.001V34.721H158.258V38.001H157.798V31.511H158.258V34.311H162.768V31.511H163.228V38.001H162.768ZM167.33 38.001V31.511H170.36V31.911H167.79V34.271H170.11V34.661H167.79V37.581H170.46V38.001H167.33ZM179.304 38.001V31.511H179.764V38.001H179.304ZM186.876 37.661H186.606L184.716 33.071C184.636 32.891 184.556 32.681 184.476 32.441C184.476 32.4476 184.469 32.4843 184.456 32.551C184.449 32.6176 184.439 32.7076 184.426 32.821C184.412 32.9276 184.399 33.0176 184.386 33.091L183.636 38.001H183.186L184.246 31.471H184.516L186.536 36.261C186.696 36.661 186.776 36.871 186.776 36.891C186.822 36.751 186.912 36.5443 187.046 36.271L189.296 31.471H189.566L190.556 38.001H190.076L189.366 33.071C189.319 32.7443 189.296 32.5276 189.296 32.421L189.006 33.081L186.876 37.661ZM193.974 38.001V31.551C194.474 31.4976 195 31.471 195.554 31.471C196.114 31.471 196.587 31.621 196.974 31.921C197.36 32.2143 197.554 32.661 197.554 33.261C197.554 33.861 197.29 34.3543 196.764 34.741C196.237 35.121 195.614 35.311 194.894 35.311C194.86 35.311 194.824 35.311 194.784 35.311V34.991C194.81 34.991 194.834 34.991 194.854 34.991C195.447 34.991 195.964 34.8343 196.404 34.521C196.844 34.2076 197.064 33.801 197.064 33.301C197.064 32.801 196.907 32.4376 196.594 32.211C196.287 31.9843 195.88 31.871 195.374 31.871C195.107 31.871 194.794 31.8843 194.434 31.911V38.001H193.974ZM203.827 38.101C202.9 38.101 202.124 37.7776 201.497 37.131C200.87 36.4843 200.557 35.6943 200.557 34.761C200.557 33.821 200.87 33.0276 201.497 32.381C202.124 31.7343 202.9 31.411 203.827 31.411C204.754 31.411 205.53 31.7343 206.157 32.381C206.784 33.0276 207.097 33.821 207.097 34.761C207.097 35.6943 206.784 36.4843 206.157 37.131C205.53 37.7776 204.754 38.101 203.827 38.101ZM203.827 31.821C203.027 31.821 202.36 32.1043 201.827 32.671C201.3 33.2376 201.037 33.9343 201.037 34.761C201.037 35.581 201.3 36.2743 201.827 36.841C202.36 37.401 203.027 37.681 203.827 37.681C204.634 37.681 205.3 37.401 205.827 36.841C206.354 36.2743 206.617 35.581 206.617 34.761C206.617 33.9343 206.354 33.2376 205.827 32.671C205.3 32.1043 204.634 31.821 203.827 31.821ZM212.112 31.791C211.752 31.791 211.458 31.8776 211.232 32.051C211.005 32.2243 210.892 32.4676 210.892 32.781C210.892 33.141 211.042 33.4643 211.342 33.751C211.555 33.9576 211.828 34.1776 212.162 34.411C212.502 34.6376 212.735 34.801 212.862 34.901C212.988 35.001 213.142 35.1376 213.322 35.311C213.648 35.6376 213.812 36.0143 213.812 36.441C213.812 36.9943 213.625 37.4143 213.252 37.701C212.885 37.981 212.368 38.121 211.702 38.121C211.042 38.121 210.488 37.9476 210.042 37.601L210.282 37.251C210.735 37.5576 211.215 37.711 211.722 37.711C212.228 37.711 212.622 37.6043 212.902 37.391C213.188 37.1776 213.332 36.8776 213.332 36.491C213.332 36.1576 213.188 35.851 212.902 35.571C212.702 35.371 212.432 35.1543 212.092 34.921C211.758 34.6876 211.525 34.521 211.392 34.421C211.258 34.3143 211.102 34.1743 210.922 34.001C210.582 33.661 210.412 33.2676 210.412 32.821C210.412 32.3743 210.568 32.0243 210.882 31.771C211.202 31.5176 211.642 31.391 212.202 31.391C212.762 31.391 213.265 31.501 213.712 31.721L213.542 32.091C213.128 31.891 212.652 31.791 212.112 31.791ZM218.665 31.791C218.305 31.791 218.012 31.8776 217.785 32.051C217.558 32.2243 217.445 32.4676 217.445 32.781C217.445 33.141 217.595 33.4643 217.895 33.751C218.108 33.9576 218.382 34.1776 218.715 34.411C219.055 34.6376 219.288 34.801 219.415 34.901C219.542 35.001 219.695 35.1376 219.875 35.311C220.202 35.6376 220.365 36.0143 220.365 36.441C220.365 36.9943 220.178 37.4143 219.805 37.701C219.438 37.981 218.922 38.121 218.255 38.121C217.595 38.121 217.042 37.9476 216.595 37.601L216.835 37.251C217.288 37.5576 217.768 37.711 218.275 37.711C218.782 37.711 219.175 37.6043 219.455 37.391C219.742 37.1776 219.885 36.8776 219.885 36.491C219.885 36.1576 219.742 35.851 219.455 35.571C219.255 35.371 218.985 35.1543 218.645 34.921C218.312 34.6876 218.078 34.521 217.945 34.421C217.812 34.3143 217.655 34.1743 217.475 34.001C217.135 33.661 216.965 33.2676 216.965 32.821C216.965 32.3743 217.122 32.0243 217.435 31.771C217.755 31.5176 218.195 31.391 218.755 31.391C219.315 31.391 219.818 31.501 220.265 31.721L220.095 32.091C219.682 31.891 219.205 31.791 218.665 31.791ZM223.909 38.001V31.511H224.369V38.001H223.909ZM228.46 31.541C228.933 31.501 229.42 31.481 229.92 31.481C230.42 31.481 230.847 31.601 231.2 31.841C231.56 32.081 231.74 32.431 231.74 32.891C231.74 33.2376 231.647 33.5576 231.46 33.851C231.273 34.1443 231.047 34.3676 230.78 34.521C231.213 34.6476 231.573 34.8743 231.86 35.201C232.147 35.5276 232.29 35.8976 232.29 36.311C232.29 36.8843 232.107 37.3176 231.74 37.611C231.38 37.9043 230.87 38.051 230.21 38.051C229.55 38.051 228.967 38.0276 228.46 37.981V31.541ZM229.37 34.721L228.92 34.731V37.601C229.207 37.6276 229.67 37.641 230.31 37.641C230.743 37.641 231.1 37.521 231.38 37.281C231.667 37.0343 231.81 36.7276 231.81 36.361C231.81 35.9876 231.667 35.6643 231.38 35.391C231.1 35.111 230.733 34.9143 230.28 34.801C230.047 34.7476 229.743 34.721 229.37 34.721ZM231.29 32.881C231.29 32.5543 231.153 32.3043 230.88 32.131C230.607 31.951 230.28 31.861 229.9 31.861C229.52 31.861 229.193 31.871 228.92 31.891V34.341C229.5 34.341 229.963 34.3576 230.31 34.391C230.57 34.251 230.797 34.0476 230.99 33.781C231.19 33.5076 231.29 33.2076 231.29 32.881ZM235.893 38.001V31.511H236.353V37.581H239.333V38.001H235.893ZM242.397 38.001V31.511H245.427V31.911H242.857V34.271H245.177V34.661H242.857V37.581H245.527V38.001H242.397ZM254.371 38.001V31.551C254.871 31.4976 255.398 31.471 255.951 31.471C256.511 31.471 256.985 31.621 257.371 31.921C257.758 32.2143 257.951 32.661 257.951 33.261C257.951 33.861 257.688 34.3543 257.161 34.741C256.635 35.121 256.011 35.311 255.291 35.311C255.258 35.311 255.221 35.311 255.181 35.311V34.991C255.208 34.991 255.231 34.991 255.251 34.991C255.845 34.991 256.361 34.8343 256.801 34.521C257.241 34.2076 257.461 33.801 257.461 33.301C257.461 32.801 257.305 32.4376 256.991 32.211C256.685 31.9843 256.278 31.871 255.771 31.871C255.505 31.871 255.191 31.8843 254.831 31.911V38.001H254.371ZM264.225 38.101C263.298 38.101 262.521 37.7776 261.895 37.131C261.268 36.4843 260.955 35.6943 260.955 34.761C260.955 33.821 261.268 33.0276 261.895 32.381C262.521 31.7343 263.298 31.411 264.225 31.411C265.151 31.411 265.928 31.7343 266.555 32.381C267.181 33.0276 267.495 33.821 267.495 34.761C267.495 35.6943 267.181 36.4843 266.555 37.131C265.928 37.7776 265.151 38.101 264.225 38.101ZM264.225 31.821C263.425 31.821 262.758 32.1043 262.225 32.671C261.698 33.2376 261.435 33.9343 261.435 34.761C261.435 35.581 261.698 36.2743 262.225 36.841C262.758 37.401 263.425 37.681 264.225 37.681C265.031 37.681 265.698 37.401 266.225 36.841C266.751 36.2743 267.015 35.581 267.015 34.761C267.015 33.9343 266.751 33.2376 266.225 32.671C265.698 32.1043 265.031 31.821 264.225 31.821ZM272.509 31.791C272.149 31.791 271.856 31.8776 271.629 32.051C271.403 32.2243 271.289 32.4676 271.289 32.781C271.289 33.141 271.439 33.4643 271.739 33.751C271.953 33.9576 272.226 34.1776 272.559 34.411C272.899 34.6376 273.133 34.801 273.259 34.901C273.386 35.001 273.539 35.1376 273.719 35.311C274.046 35.6376 274.209 36.0143 274.209 36.441C274.209 36.9943 274.023 37.4143 273.649 37.701C273.283 37.981 272.766 38.121 272.099 38.121C271.439 38.121 270.886 37.9476 270.439 37.601L270.679 37.251C271.133 37.5576 271.613 37.711 272.119 37.711C272.626 37.711 273.019 37.6043 273.299 37.391C273.586 37.1776 273.729 36.8776 273.729 36.491C273.729 36.1576 273.586 35.851 273.299 35.571C273.099 35.371 272.829 35.1543 272.489 34.921C272.156 34.6876 271.923 34.521 271.789 34.421C271.656 34.3143 271.499 34.1743 271.319 34.001C270.979 33.661 270.809 33.2676 270.809 32.821C270.809 32.3743 270.966 32.0243 271.279 31.771C271.599 31.5176 272.039 31.391 272.599 31.391C273.159 31.391 273.663 31.501 274.109 31.721L273.939 32.091C273.526 31.891 273.049 31.791 272.509 31.791ZM279.063 31.791C278.703 31.791 278.409 31.8776 278.183 32.051C277.956 32.2243 277.843 32.4676 277.843 32.781C277.843 33.141 277.993 33.4643 278.293 33.751C278.506 33.9576 278.779 34.1776 279.113 34.411C279.453 34.6376 279.686 34.801 279.813 34.901C279.939 35.001 280.093 35.1376 280.273 35.311C280.599 35.6376 280.763 36.0143 280.763 36.441C280.763 36.9943 280.576 37.4143 280.203 37.701C279.836 37.981 279.319 38.121 278.653 38.121C277.993 38.121 277.439 37.9476 276.993 37.601L277.233 37.251C277.686 37.5576 278.166 37.711 278.673 37.711C279.179 37.711 279.573 37.6043 279.853 37.391C280.139 37.1776 280.283 36.8776 280.283 36.491C280.283 36.1576 280.139 35.851 279.853 35.571C279.653 35.371 279.383 35.1543 279.043 34.921C278.709 34.6876 278.476 34.521 278.343 34.421C278.209 34.3143 278.053 34.1743 277.873 34.001C277.533 33.661 277.363 33.2676 277.363 32.821C277.363 32.3743 277.519 32.0243 277.833 31.771C278.153 31.5176 278.593 31.391 279.153 31.391C279.713 31.391 280.216 31.501 280.663 31.721L280.493 32.091C280.079 31.891 279.603 31.791 279.063 31.791ZM284.306 38.001V31.511H284.766V38.001H284.306ZM288.858 31.541C289.331 31.501 289.818 31.481 290.318 31.481C290.818 31.481 291.244 31.601 291.598 31.841C291.958 32.081 292.138 32.431 292.138 32.891C292.138 33.2376 292.044 33.5576 291.858 33.851C291.671 34.1443 291.444 34.3676 291.178 34.521C291.611 34.6476 291.971 34.8743 292.258 35.201C292.544 35.5276 292.688 35.8976 292.688 36.311C292.688 36.8843 292.504 37.3176 292.138 37.611C291.778 37.9043 291.268 38.051 290.608 38.051C289.948 38.051 289.364 38.0276 288.858 37.981V31.541ZM289.768 34.721L289.318 34.731V37.601C289.604 37.6276 290.068 37.641 290.708 37.641C291.141 37.641 291.498 37.521 291.778 37.281C292.064 37.0343 292.208 36.7276 292.208 36.361C292.208 35.9876 292.064 35.6643 291.778 35.391C291.498 35.111 291.131 34.9143 290.678 34.801C290.444 34.7476 290.141 34.721 289.768 34.721ZM291.688 32.881C291.688 32.5543 291.551 32.3043 291.278 32.131C291.004 31.951 290.678 31.861 290.298 31.861C289.918 31.861 289.591 31.871 289.318 31.891V34.341C289.898 34.341 290.361 34.3576 290.708 34.391C290.968 34.251 291.194 34.0476 291.388 33.781C291.588 33.5076 291.688 33.2076 291.688 32.881ZM296.29 38.001V31.511H296.75V37.581H299.73V38.001H296.29ZM302.795 38.001V31.511H305.825V31.911H303.255V34.271H305.575V34.661H303.255V37.581H305.925V38.001H302.795Z" fill="white"/>
<path d="M36.2544 14.1184L9.28809 0L9.70295 9.8401L18.4151 14.5462L26.7125 18.8847L18.83 23.1029L27.9571 27.809L36.2544 23.9585V14.1184Z" fill="url(#paint1_linear_366_186)"/>
<path d="M0.346218 22.8888L29.0913 37.5L29.0913 28.2304L18.5821 23.0142L10.2065 18.6995L18.1365 14.3259L13.5016 11.7978L9.79088 9.4969L0.574604 13.7376L0.346218 22.8888Z" fill="url(#paint2_linear_366_186)"/>
<defs>
<linearGradient id="paint0_linear_366_186" x1="211.5" y1="1.00098" x2="211.5" y2="24.0083" gradientUnits="userSpaceOnUse">
<stop stop-color="#F9A833"/>
<stop offset="1" stop-color="#BA4380"/>
</linearGradient>
<linearGradient id="paint1_linear_366_186" x1="22.7712" y1="0" x2="22.7712" y2="27.809" gradientUnits="userSpaceOnUse">
<stop stop-color="#A0366E"/>
<stop offset="1" stop-color="#B84580"/>
</linearGradient>
<linearGradient id="paint2_linear_366_186" x1="14.5455" y1="37.137" x2="15.2319" y2="9.63269" gradientUnits="userSpaceOnUse">
<stop stop-color="#FAA71A"/>
<stop offset="1" stop-color="#FDB118"/>
</linearGradient>
</defs>
</svg>
